<?xml version="1.0" encoding="UTF-8"?>
<svg width="755px" height="694px" viewBox="0 0 755 694" version="1.1" xmlns="http://www.w3.org/2000/svg" xmlns:xlink="http://www.w3.org/1999/xlink">
    <!-- Generator: Sketch 53.2 (72643) - https://sketchapp.com -->
    <title>Desktop</title>
    <desc>Created with Sketch.</desc>
    <g id="Desktop" stroke="none" stroke-width="1" fill="none" fill-rule="evenodd">
        <rect fill="#FFFFFF" x="0" y="0" width="755" height="694"></rect>
        <g id="Group-2" transform="translate(40.000000, 165.000000)">
            <rect id="Rectangle" stroke="#8798AD" stroke-width="3.2" x="1.6" y="1.6" width="87.8" height="40.8" rx="6.4"></rect>
            <text id="APP" font-family="Replica-Regular" font-size="14.4" font-weight="normal" letter-spacing="0.64581809" fill="#2E384D">
                <tspan x="31.1352729" y="22">APP</tspan>
            </text>
            <text id="src/index.js" font-family="Replica-Regular" font-size="9" font-weight="normal" letter-spacing="0.403636307" fill="#8798AD">
                <tspan x="20.6731822" y="32">src/index.js</tspan>
            </text>
        </g>
        <g id="Group-2-Copy-2" transform="translate(40.000000, 100.000000)">
            <rect id="Rectangle" stroke="#8798AD" stroke-width="3.2" x="1.6" y="1.6" width="107.8" height="40.8" rx="6.4"></rect>
            <text id="SERVER" font-family="Replica-Regular" font-size="14.4" font-weight="normal" letter-spacing="0.64581809" fill="#2E384D">
                <tspan x="26.5585457" y="22">SERVER</tspan>
            </text>
            <text id="src/server.js" font-family="Replica-Regular" font-size="9" font-weight="normal" letter-spacing="0.403636307" fill="#8798AD">
                <tspan x="29.211364" y="32">src/server.js</tspan>
            </text>
        </g>
        <g id="Group-2-Copy-2" transform="translate(40.000000, 35.000000)">
            <rect id="Rectangle" stroke="#8798AD" stroke-width="3.2" x="1.6" y="1.6" width="146.8" height="40.8" rx="6.4"></rect>
            <text id="DEPENDECIES" font-family="Replica-Regular" font-size="14.4" font-weight="normal" letter-spacing="0.64581809" fill="#2E384D">
                <tspan x="23.4920005" y="22">DEPENDECIES </tspan>
            </text>
            <text id="package.json" font-family="Replica-Regular" font-size="9" font-weight="normal" letter-spacing="0.4036363" fill="#8798AD">
                <tspan x="47.5631822" y="32">package.json</tspan>
            </text>
        </g>
        <g id="Group-2-Copy-3" transform="translate(40.000000, 295.000000)">
            <rect id="Rectangle" stroke="#2E5BFF" stroke-width="3.2" x="1.6" y="1.6" width="143.8" height="40.8" rx="6.4"></rect>
            <text id="PAGES" font-family="Replica-Regular" font-size="14.4" font-weight="normal" letter-spacing="0.64581809" fill="#2E384D">
                <tspan x="50.0614548" y="22">PAGES</tspan>
            </text>
            <text id="src/components/pages" font-family="Replica-Regular" font-size="9" font-weight="normal" letter-spacing="0.403636307" fill="#8798AD">
                <tspan x="24.7436369" y="32">src/components/pages</tspan>
            </text>
        </g>
        <g id="Group-2-Copy-7" transform="translate(40.000000, 230.000000)">
            <rect id="Rectangle" stroke="#8798AD" stroke-width="3.2" x="1.6" y="1.6" width="174.8" height="40.8" rx="6.4"></rect>
            <text id="ROUTER" font-family="Replica-Regular" font-size="14.4" font-weight="normal" letter-spacing="0.64581809" fill="#2E384D">
                <tspan x="59.3345457" y="22">ROUTER</tspan>
            </text>
            <text id="node_modules/@hypera" font-family="Replica-Regular" font-size="9" font-weight="normal" letter-spacing="0.403636307" fill="#8798AD">
                <tspan x="17.3672736" y="32">node_modules/@hyperapp/router</tspan>
            </text>
        </g>
        <g id="Group-2-Copy-8" transform="translate(218.000000, 328.000000)">
            <rect id="Rectangle" stroke="#8798AD" stroke-width="3.2" x="1.6" y="1.6" width="237.8" height="40.8" rx="6.4"></rect>
            <text id="NAVIGATION-BAR" font-family="Replica-Regular" font-size="14.4" font-weight="normal" letter-spacing="0.64581809" fill="#2E384D">
                <tspan x="57.5403643" y="22"> NAVIGATION BAR</tspan>
            </text>
            <text id="src/components/navit" font-family="Replica-Regular" font-size="9" font-weight="normal" letter-spacing="0.403636307" fill="#8798AD">
                <tspan x="26.0886376" y="32">src/components/navitation/NavigationBar.js</tspan>
            </text>
        </g>
        <g id="Group-2-Copy-10" transform="translate(490.000000, 360.000000)">
            <rect id="Rectangle" stroke="#8798AD" stroke-width="3.2" x="1.6" y="1.6" width="237.8" height="40.8" rx="6.4"></rect>
            <text id="DATE-PICKER" font-family="Replica-Regular" font-size="14.4" font-weight="normal" letter-spacing="0.64581809" fill="#2E384D">
                <tspan x="73.8800005" y="22">DATE PICKER</tspan>
            </text>
            <text id="src/components/form/" font-family="Replica-Regular" font-size="9" font-weight="normal" letter-spacing="0.403636307" fill="#8798AD">
                <tspan x="32.8127283" y="32">src/components/form/FormDatePicker.js</tspan>
            </text>
        </g>
        <g id="Group-2-Copy-12" transform="translate(529.000000, 554.000000)">
            <rect id="Rectangle" stroke="#8798AD" stroke-width="3.2" x="1.6" y="1.6" width="174.8" height="40.8" rx="6.4"></rect>
            <text id="CONSOLE-LOGGER" font-family="Replica-Regular" font-size="14.4" font-weight="normal" letter-spacing="0.64581809" fill="#2E384D">
                <tspan x="21.2552734" y="22">CONSOLE LOGGER</tspan>
            </text>
            <text id="src/utils/Log.js" font-family="Replica-Regular" font-size="9" font-weight="normal" letter-spacing="0.403636307" fill="#8798AD">
                <tspan x="56.8459095" y="32">src/utils/Log.js</tspan>
            </text>
        </g>
        <g id="Group-2-Copy-13" transform="translate(218.000000, 555.000000)">
            <rect id="Rectangle" stroke="#8798AD" stroke-width="3.2" x="1.6" y="1.6" width="205.8" height="40.8" rx="6.4"></rect>
            <text id="SERVER-CONSTANTS" font-family="Replica-Regular" font-size="14.4" font-weight="normal" letter-spacing="0.64581809" fill="#2E384D">
                <tspan x="29.0494553" y="22">SERVER CONSTANTS</tspan>
            </text>
            <text id="src/constants/Consta" font-family="Replica-Regular" font-size="9" font-weight="normal" letter-spacing="0.403636307" fill="#8798AD">
                <tspan x="47.112728" y="32">src/constants/Constants.js</tspan>
            </text>
        </g>
        <g id="Group-2-Copy-15" transform="translate(40.000000, 621.000000)">
            <rect id="Rectangle" stroke="#8798AD" stroke-width="3.2" x="1.6" y="1.6" width="174.8" height="40.8" rx="6.4"></rect>
            <text id="DATA-TRANSFORMS" font-family="Replica-Regular" font-size="14.4" font-weight="normal" letter-spacing="0.64581809" fill="#2E384D">
                <tspan x="17.4763643" y="22">DATA TRANSFORMS</tspan>
            </text>
            <text id="src/datatransform" font-family="Replica-Regular" font-size="9" font-weight="normal" letter-spacing="0.403636307" fill="#8798AD">
                <tspan x="50.8390914" y="32">src/datatransform</tspan>
            </text>
        </g>
        <g id="Group-2-Copy-16" transform="translate(40.000000, 556.000000)">
            <rect id="Rectangle" stroke="#8798AD" stroke-width="3.2" x="1.6" y="1.6" width="143.8" height="40.8" rx="6.4"></rect>
            <text id="API-REQUEST" font-family="Replica-Regular" font-size="14.4" font-weight="normal" letter-spacing="0.64581809" fill="#2E384D">
                <tspan x="24.7280005" y="22">API REQUEST</tspan>
            </text>
            <text id="src/service/Request." font-family="Replica-Regular" font-size="9" font-weight="normal" letter-spacing="0.403636307" fill="#8798AD">
                <tspan x="24.7850006" y="32">src/service/Request.js</tspan>
            </text>
        </g>
        <g id="Group-2-Copy-14" transform="translate(529.000000, 619.000000)">
            <rect id="Rectangle" stroke="#8798AD" stroke-width="3.2" x="1.6" y="1.6" width="174.8" height="40.8" rx="6.4"></rect>
            <text id="LANGUAGE" font-family="Replica-Regular" font-size="14.4" font-weight="normal" letter-spacing="0.64581809" fill="#2E384D">
                <tspan x="49.5447276" y="22">LANGUAGE</tspan>
            </text>
            <text id="src/language/DE.js" font-family="Replica-Regular" font-size="9" font-weight="normal" letter-spacing="0.403636307" fill="#8798AD">
                <tspan x="48.2522732" y="32">src/language/DE.js</tspan>
            </text>
        </g>
        <g id="Group-2-Copy-11" transform="translate(490.000000, 425.000000)">
            <rect id="Rectangle" stroke="#8798AD" stroke-width="3.2" x="1.6" y="1.6" width="237.8" height="40.8" rx="6.4"></rect>
            <text id="DROPDOWN" font-family="Replica-Regular" font-size="14.4" font-weight="normal" letter-spacing="0.64581809" fill="#2E384D">
                <tspan x="77.7287276" y="22">DROPDOWN</tspan>
            </text>
            <text id="src/components/form/" font-family="Replica-Regular" font-size="9" font-weight="normal" letter-spacing="0.403636307" fill="#8798AD">
                <tspan x="34.3863646" y="32">src/components/form/FormDropdown.js</tspan>
            </text>
        </g>
        <g id="Group-2-Copy-9" transform="translate(218.000000, 490.000000)">
            <rect id="Rectangle" stroke="#8798AD" stroke-width="3.2" x="1.6" y="1.6" width="117.8" height="40.8" rx="6.4"></rect>
            <text id="D3.JS" font-family="Replica-Regular" font-size="14.4" font-weight="normal" letter-spacing="0.64581809" fill="#2E384D">
                <tspan x="40.4494548" y="22">D3.JS</tspan>
            </text>
            <text id="node_modules/d3" font-family="Replica-Regular" font-size="9" font-weight="normal" letter-spacing="0.403636307" fill="#8798AD">
                <tspan x="22.6477277" y="32">node_modules/d3</tspan>
            </text>
        </g>
        <g id="Group-2-Copy-8" transform="translate(218.000000, 393.000000)">
            <rect id="Rectangle" stroke="#8798AD" stroke-width="3.2" x="1.6" y="1.6" width="237.8" height="40.8" rx="6.4"></rect>
            <text id="SUB-NAVIGATION-BAR" font-family="Replica-Regular" font-size="14.4" font-weight="normal" letter-spacing="0.64581809" fill="#2E384D">
                <tspan x="40.3367281" y="22"> SUB NAVIGATION BAR</tspan>
            </text>
            <text id="src/components/navit" font-family="Replica-Regular" font-size="9" font-weight="normal" letter-spacing="0.4036363" fill="#8798AD">
                <tspan x="17.8781833" y="32">src/components/navitation/SubNavigationBar.js</tspan>
            </text>
        </g>
        <g id="Group-2-Copy-4" transform="translate(40.000000, 360.000000)">
            <rect id="Rectangle" stroke="#8C54FF" stroke-width="3.2" x="1.6" y="1.6" width="143.8" height="40.8" rx="6.4"></rect>
            <text id="LAYOUTS" font-family="Replica-Regular" font-size="14.4" font-weight="normal" letter-spacing="0.64581809" fill="#2E384D">
                <tspan x="40.9196367" y="22">LAYOUTS</tspan>
            </text>
            <text id="src/components/layou" font-family="Replica-Regular" font-size="9" font-weight="normal" letter-spacing="0.403636307" fill="#8798AD">
                <tspan x="21.7750006" y="32">src/components/layouts</tspan>
            </text>
        </g>
        <g id="Group-2-Copy-5" transform="translate(40.000000, 425.000000)">
            <rect id="Rectangle" stroke="#00C1D4" stroke-width="3.2" x="1.6" y="1.6" width="143.8" height="40.8" rx="6.4"></rect>
            <text id="BLOCKS" font-family="Replica-Regular" font-size="14.4" font-weight="normal" letter-spacing="0.64581809" fill="#2E384D">
                <tspan x="45.4865457" y="22">BLOCKS</tspan>
            </text>
            <text id="src/components/block" font-family="Replica-Regular" font-size="9" font-weight="normal" letter-spacing="0.403636307" fill="#8798AD">
                <tspan x="23.8718188" y="32">src/components/blocks</tspan>
            </text>
        </g>
        <g id="Group-2-Copy-6" transform="translate(40.000000, 490.000000)">
            <rect id="Rectangle" stroke="#F7C137" stroke-width="3.2" x="1.6" y="1.6" width="143.8" height="40.8" rx="6.4"></rect>
            <text id="GRAPHS" font-family="Replica-Regular" font-size="14.4" font-weight="normal" letter-spacing="0.64581809" fill="#2E384D">
                <tspan x="43.6905457" y="22">GRAPHS</tspan>
            </text>
            <text id="src/components/graph" font-family="Replica-Regular" font-size="9" font-weight="normal" letter-spacing="0.403636307" fill="#8798AD">
                <tspan x="22.9668188" y="32">src/components/graphs</tspan>
            </text>
        </g>
        <path d="M89.5,145.5 L89.5,163.5" id="Line" stroke="#F7C137" stroke-width="3" stroke-linecap="square"></path>
        <path d="M89.5,80.5 L89.5,98.5" id="Line-Copy-2" stroke="#F7C137" stroke-width="3" stroke-linecap="square"></path>
        <path d="M89.5,210.5 L89.5,228.5" id="Line-Copy" stroke="#F7C137" stroke-width="3" stroke-linecap="square"></path>
        <path d="M89.5,275.5 L89.5,293.5" id="Line-Copy" stroke="#F7C137" stroke-width="3" stroke-linecap="square"></path>
        <path d="M89.5,340.5 L89.5,358.5" id="Line-Copy" stroke="#F7C137" stroke-width="3" stroke-linecap="square"></path>
        <path d="M89.5,405.5 L89.5,423.5" id="Line-Copy" stroke="#F7C137" stroke-width="3" stroke-linecap="square"></path>
        <path d="M89.5,470.5 L89.5,488.5" id="Line-Copy" stroke="#F7C137" stroke-width="3" stroke-linecap="square"></path>
        <path d="M89.5,534.5 L89.5,554.5" id="Line-Copy-4" stroke="#F7C137" stroke-width="3" stroke-linecap="square"></path>
        <path d="M89.5,601.5 L89.5,619.5" id="Line-Copy-5" stroke="#F7C137" stroke-width="3" stroke-linecap="square"></path>
        <path d="M187.5,512.5 L216.5,512.5" id="Line-Copy-3" stroke="#F7C137" stroke-width="3" stroke-linecap="square" transform="translate(202.000000, 512.000000) scale(-1, 1) translate(-202.000000, -512.000000) "></path>
        <path d="M187.5,578.5 L216.5,578.5" id="Line-Copy-7" stroke="#F7C137" stroke-width="3" stroke-linecap="square" transform="translate(202.000000, 578.000000) scale(-1, 1) translate(-202.000000, -578.000000) "></path>
        <path d="M187,350.0147 C197.333333,349.681663 202.5,355.007493 202.5,365.992189 C202.5,376.976886 207.666667,382.308238 218,381.986245" id="Path" stroke="#F7C137" stroke-width="3" transform="translate(202.500000, 366.000000) scale(-1, 1) translate(-202.500000, -366.000000) "></path>
        <path d="M459,383.0147 C469.333333,382.681663 474.5,388.007493 474.5,398.992189 C474.5,409.976886 479.666667,415.308238 490,414.986245" id="Path-Copy-2" stroke="#F7C137" stroke-width="3" transform="translate(474.500000, 399.000000) scale(-1, 1) translate(-474.500000, -399.000000) "></path>
        <path d="M187,383.0147 C197.333333,382.681663 202.5,388.007493 202.5,398.992189 C202.5,409.976886 207.666667,415.308238 218,414.986245" id="Path-Copy" stroke="#F7C137" stroke-width="3" transform="translate(202.500000, 399.000000) scale(-1, -1) translate(-202.500000, -399.000000) "></path>
        <path d="M459,416.0147 C469.333333,415.681663 474.5,421.007493 474.5,431.992189 C474.5,442.976886 479.666667,448.308238 490,447.986245" id="Path-Copy-3" stroke="#F7C137" stroke-width="3" transform="translate(474.500000, 432.000000) scale(-1, -1) translate(-474.500000, -432.000000) "></path>
        <path d="M40,512.020035 C29.3333333,511.686121 24,515.526127 24,523.540051 C24,525.967879 24,628.323326 24,630.877606 C24,640.126308 29.3333333,644.082832 40,642.747178" id="Path-2" stroke="#F7C137" stroke-width="3"></path>
        <path id="Line-2-Copy" d="M25,578.5 L25,585.5 L25,586 L24,586 L24,585.5 L24,578.5 L20,578.5 L24.5,569.5 L29,578.5 L25,578.5 Z" fill="#F7C137" fill-rule="nonzero"></path>
        <path id="Line-2-Copy-3" d="M204,512.5 L209.5,512.5 L210,512.5 L210,513.5 L209.5,513.5 L204,513.5 L204,517.5 L195,513 L204,508.5 L204,512.5 Z" fill="#F7C137" fill-rule="nonzero"></path>
        <path id="Line-2-Copy-4" d="M204,578.5 L209.5,578.5 L210,578.5 L210,579.5 L209.5,579.5 L204,579.5 L204,583.5 L195,579 L204,574.5 L204,578.5 Z" fill="#F7C137" fill-rule="nonzero"></path>
    </g>
</svg>