<?xml version="1.0" encoding="UTF-8"?>
<svg width="19px" height="19px" viewBox="0 0 19 19" version="1.1" xmlns="http://www.w3.org/2000/svg" xmlns:xlink="http://www.w3.org/1999/xlink">
    <!-- Generator: Sketch 52.5 (67469) - http://www.bohemiancoding.com/sketch -->
    <title>facebook-app-logo</title>
    <desc>Created with Sketch.</desc>
    <g id="Desktop" stroke="none" stroke-width="1" fill="none" fill-rule="evenodd">
        <g id="2-–-Uber" transform="translate(-133.000000, -497.000000)" fill="#8798AD">
            <g id="facebook-app-logo" transform="translate(133.000000, 497.000000)">
                <path d="M17.9507014,0 L1.04867286,0 C0.469900547,0 0,0.468961997 0,1.04867286 L0,17.9507014 C0,18.5304123 0.469900547,19 1.04867286,19 L10.148225,19 L10.148225,11.6420833 L7.6723309,11.6420833 L7.6723309,8.77418824 L10.148225,8.77418824 L10.148225,6.65932293 C10.148225,4.20564118 11.6464631,2.86883356 13.8357867,2.86883356 C14.8853981,2.86883356 15.7854673,2.94735889 16.0479484,2.98145953 L16.0479484,5.54620299 L14.529375,5.54682869 C13.3389811,5.54682869 13.1093493,6.11277416 13.1093493,6.94276493 L13.1093493,8.77324969 L15.9494006,8.77324969 L15.5780478,11.6408319 L13.1090364,11.6408319 L13.1090364,18.9990615 L17.9503886,18.9990615 C18.5297866,18.9990615 19,18.5288481 19,17.9507014 L19,1.04804716 C18.9996872,0.468961997 18.5300995,0 17.9507014,0 Z" id="Path"></path>
            </g>
        </g>
    </g>
</svg>