<?xml version="1.0" encoding="utf-8"?>
<!-- Generator: Adobe Illustrator 21.1.0, SVG Export Plug-In . SVG Version: 6.00 Build 0)  -->
<svg version="1.1" id="Ebene_1" xmlns="http://www.w3.org/2000/svg" xmlns:xlink="http://www.w3.org/1999/xlink" x="0px" y="0px"
	 viewBox="0 0 268 83.1" style="enable-background:new 0 0 268 83.1;" xml:space="preserve">
<style type="text/css">
	.st0{fill:#0BA1E2;}
</style>
<g>
	<path class="st0" d="M72.8,40.4c-2.4-24.6-21.8-30-31.2-30c-17,0-31.2,13.8-31.2,31.3c0,9.9,5.3,23.8,21.7,29.6v11.1
		C1.3,73,0,47.1,0,41.7C0,18.6,18.8,0,41.6,0c14.9,0,28.7,8,36.1,20.9c4.8,8.2,5.3,15,5.7,19.5H72.8L72.8,40.4L72.8,40.4z"/>
	<g>
		<polygon points="47.7,29 47.7,40.6 35.8,40.6 35.8,29 47.7,29 47.7,29 		"/>
		<polygon points="35.8,82.4 35.8,44.3 47.7,44.3 47.7,82.4 35.8,82.4 35.8,82.4 		"/>
		<polygon points="62.3,44.3 62.3,60.1 72.8,44.3 83.4,44.3 73.7,58.3 84.8,80.8 84.8,44.3 95.7,44.3 95.7,60.1 106.3,44.3 
			116.8,44.3 107.2,58.3 119,82.4 106.3,82.4 99.7,68.2 95.7,73.8 95.7,82.4 72.8,82.4 66.3,68.2 62.3,73.8 62.3,82.4 51.4,82.4 
			51.4,44.3 62.3,44.3 62.3,44.3 		"/>
		<path d="M144.3,62.8c-1.2-4.2-4.1-6.8-8.5-6.8c-6.8,0-9.6,6.2-9.6,12.1c0,6,2.8,12,9.6,12c4.9,0,8-2.9,8.7-7.6h3.5
			c-1.2,6.3-5.1,10.6-12.3,10.6c-9.1,0-13.1-6.5-13.1-15c0-7.9,4.6-15.1,13.1-15.1c6.5,0,10.8,3.1,11.8,9.7H144.3z"/>
		<path d="M151.4,82.4V44.3h3.3v38.1H151.4z"/>
		<path d="M172.4,65.7c1.2-0.1,3.2-0.4,4.3-0.9c1.1-0.5,1.2-2,1.2-3c0-3.4-2-5.8-7.1-5.8c-4.6,0-7.7,1.5-8.3,6.4h-3.4
			c0.5-6.7,5.5-9.4,11.7-9.4c5.8,0,10.3,2.3,10.3,8.9v15.5c0,2.6,0.7,3.2,3.5,2.2v2.6c-0.5,0.2-1.6,0.5-2.6,0.5
			c-0.5,0-1-0.1-1.5-0.2c-2.2-0.3-2.6-2.3-2.6-4.2c-2.8,3.1-6.5,4.7-10.6,4.7c-5,0-9.5-2.7-9.5-8.2c0-4.8,3.3-7.7,10-8.6L172.4,65.7
			z M177.9,67.4c-2.8,1.2-5.7,1.4-8.5,1.6c-5,0.4-8,2.2-8,6.1c0,3.5,3,5.1,6.2,5.1c5.2,0,10.4-2.5,10.4-8.3V67.4z"/>
		<path d="M189,73.4c1,4.9,3.6,6.7,8.5,6.7c4.8,0,7-2.5,7-5.3c0-8.3-18.3-2.4-18.3-13.6c0-4.7,3.7-8.1,10-8.1c6.2,0,10.2,2.5,11,9
			H204c-0.6-4.4-3.6-6-7.7-6c-4.2,0-6.4,2-6.4,4.9c0,7.8,18.3,2.9,18.3,13.9c0,5.4-4.9,8.3-11.6,8.3c-6.7,0-10.6-4.3-10.8-9.7H189z"
			/>
		<path d="M213.8,73.4c1,4.9,3.6,6.7,8.5,6.7c4.8,0,7-2.5,7-5.3c0-8.3-18.3-2.4-18.3-13.6c0-4.7,3.7-8.1,10-8.1c6.2,0,10.2,2.5,11,9
			h-3.4c-0.6-4.4-3.6-6-7.7-6c-4.2,0-6.4,2-6.4,4.9c0,7.8,18.3,2.9,18.3,13.9c0,5.4-4.9,8.3-11.6,8.3c-6.7,0-10.6-4.3-10.8-9.7
			H213.8z"/>
		<rect x="236.1" y="44.3" width="3.3" height="4.9"/>
		<rect x="236.1" y="53.8" width="3.3" height="28.5"/>
		<path d="M264.2,62.8c-1.2-4.2-4.1-6.8-8.5-6.8c-6.8,0-9.6,6.2-9.6,12.1c0,6,2.7,12,9.6,12c4.9,0,8-2.9,8.7-7.6h3.5
			c-1.2,6.3-5.1,10.6-12.3,10.6c-9.1,0-13.1-6.5-13.1-15c0-7.9,4.6-15.1,13.1-15.1c6.5,0,10.8,3.1,11.8,9.7H264.2z"/>
	</g>
</g>
</svg>
