<?xml version="1.0" encoding="UTF-8"?>
<svg width="26px" height="19px" viewBox="0 0 26 19" version="1.1" xmlns="http://www.w3.org/2000/svg" xmlns:xlink="http://www.w3.org/1999/xlink">
    <!-- Generator: Sketch 52.5 (67469) - http://www.bohemiancoding.com/sketch -->
    <title>youtube-symbol</title>
    <desc>Created with Sketch.</desc>
    <g id="Desktop" stroke="none" stroke-width="1" fill="none" fill-rule="evenodd">
        <g id="2-–-Uber" transform="translate(-377.000000, -497.000000)" fill="#8798AD" fill-rule="nonzero">
            <g id="youtube-symbol" transform="translate(377.000000, 497.000000)">
                <path d="M25.550719,3.05637726 C25.2324119,1.60667117 24.1014288,0.537118987 22.7399011,0.377572529 C19.515767,0.000232493247 16.2524484,-0.00173721611 13.0041595,0.000232493247 C9.75533382,-0.00173721611 6.49147846,0.000232493247 3.26734439,0.377572529 C1.90662186,0.537118987 0.776443841,1.60667117 0.458136757,3.05637726 C0.00509935464,5.12091405 0,7.37454294 0,9.50014073 C0,11.6257385 0,13.879086 0.453037402,15.9433414 C0.770807712,17.3927661 1.90125412,18.4623183 3.26278181,18.6221462 C6.48664749,18.9997676 9.75023446,19.0017373 12.9990601,18.9997676 C16.2484226,19.0017373 19.5112044,18.9997676 22.7348017,18.6221462 C24.0955242,18.4625997 25.2267758,17.3930475 25.5450829,15.9433414 C25.9983887,13.8788046 25.999999,11.6254571 25.999999,9.50014073 C25.999999,7.37454294 26.0037564,5.12091405 25.550719,3.05637726 Z M9.64475834,13.7310764 C9.64475834,10.7157328 9.64475834,7.7319045 9.64475834,4.71627947 C12.4002886,6.2236699 15.1375684,7.7209304 17.9105438,9.23760661 C15.1461568,10.7407762 12.407535,12.2290324 9.64475834,13.7310764 Z" id="Shape"></path>
            </g>
        </g>
    </g>
</svg>